<?xml version="1.0" encoding="utf-8"?>
<!-- Generator: Adobe Illustrator 24.0.1, SVG Export Plug-In . SVG Version: 6.00 Build 0)  -->
<svg version="1.1" id="Слой_1" xmlns="http://www.w3.org/2000/svg" xmlns:xlink="http://www.w3.org/1999/xlink" x="0px" y="0px"
	 viewBox="0 0 50.99 50.99" style="enable-background:new 0 0 50.99 50.99;" xml:space="preserve">
<style type="text/css">
	.st0{fill:#EAEAEA;}
	.st1{fill:#D3B3A3;}
	.st2{fill:#1E1C21;}
	.st3{opacity:0.1;}
	.st4{fill:#EBEBEB;}
	.st5{opacity:0.2;}
	.st6{opacity:0.5;}
	.st7{fill:#190F1F;}
	.st8{fill:none;stroke:#1E1C21;stroke-width:7;stroke-miterlimit:10;}
	.st9{fill:none;stroke:#E2D2C9;stroke-width:7;stroke-miterlimit:10;}
	.st10{fill:#B33F7E;}
	.st11{fill:#DC2A32;}
	.st12{fill:#652CAC;}
	.st13{fill:#025F8C;}
	.st14{fill:#2D8349;}
	.st15{fill:#328B88;}
	.st16{fill:#FFCD1E;}
	.st17{fill:#FE9200;}
	.st18{opacity:0.4;}
	.st19{fill:#FFFFFF;}
</style>
<path class="st0" d="M50.99,38.81L37.57,25.54l13.32-13.49c-1.3-2.45-2.99-4.75-5.05-6.82C43.72,3.11,41.29,1.38,38.6,0L25.56,13.19
	L12.28,0.1C9.75,1.42,7.37,3.14,5.25,5.27l0.02,0.02c-2.05,2.05-3.79,4.41-5.14,7l13.25,13.26L0,38.6c1.33,2.61,3.09,5.07,5.28,7.25
	l0.02-0.02c1.94,1.93,4.15,3.59,6.57,4.91l13.69-13.36l13.27,13.61c2.53-1.32,4.91-3.04,7.04-5.17l-0.02-0.02
	C47.9,43.75,49.63,41.4,50.99,38.81z"/>
</svg>
