<?xml version="1.0" encoding="utf-8"?>
<!-- Generator: Adobe Illustrator 24.0.1, SVG Export Plug-In . SVG Version: 6.00 Build 0)  -->
<svg version="1.1" id="Слой_1" xmlns="http://www.w3.org/2000/svg" xmlns:xlink="http://www.w3.org/1999/xlink" x="0px" y="0px"
	 viewBox="0 0 34 34" style="enable-background:new 0 0 34 34;" xml:space="preserve">
<style type="text/css">
	.st0{fill:#EAEAEA;}
	.st1{fill:#D3B3A3;}
	.st2{fill:#1E1C21;}
	.st3{opacity:0.1;}
	.st4{fill:#EBEBEB;}
	.st5{opacity:0.2;}
	.st6{opacity:0.5;}
	.st7{fill:#190F1F;}
	.st8{fill:none;stroke:#1E1C21;stroke-width:7;stroke-miterlimit:10;}
	.st9{fill:none;stroke:#E2D2C9;stroke-width:7;stroke-miterlimit:10;}
	.st10{fill:#B33F7E;}
	.st11{fill:#DC2A32;}
	.st12{fill:#652CAC;}
	.st13{fill:#025F8C;}
	.st14{fill:#2D8349;}
	.st15{fill:#328B88;}
	.st16{fill:#FFCD1E;}
	.st17{fill:#FE9200;}
	.st18{opacity:0.4;}
	.st19{fill:#FFFFFF;}
	.st20{fill:#606060;}
	.st21{fill:none;}
</style>
<g>
	<path class="st1" d="M17,0C7.61,0,0,7.61,0,17s7.61,17,17,17c9.39,0,17-7.61,17-17S26.39,0,17,0z M17,5.08
		c3.11,0,5.62,2.52,5.62,5.62c0,3.11-2.52,5.62-5.62,5.62c-3.1,0-5.62-2.52-5.62-5.62C11.38,7.6,13.9,5.08,17,5.08z M17,29.56
		c-3.1,0-5.94-1.13-8.12-3c-0.53-0.45-0.84-1.12-0.84-1.82c0-3.15,2.55-5.67,5.7-5.67h6.54c3.15,0,5.69,2.52,5.69,5.67
		c0,0.7-0.31,1.37-0.84,1.82C22.93,28.43,20.1,29.56,17,29.56z"/>
</g>
</svg>
