<?xml version="1.0" encoding="utf-8"?>
<!-- Generator: Adobe Illustrator 24.0.1, SVG Export Plug-In . SVG Version: 6.00 Build 0)  -->
<svg version="1.1" id="Слой_1" xmlns="http://www.w3.org/2000/svg" xmlns:xlink="http://www.w3.org/1999/xlink" x="0px" y="0px"
	 viewBox="0 0 315.68 315.68" style="enable-background:new 0 0 315.68 315.68;" xml:space="preserve">
<style type="text/css">
	.st0{fill:#B33F7E;}
	.st1{fill:#652CAC;}
	.st2{fill:#025F8C;}
	.st3{fill:#328B88;}
	.st4{fill:#2D8349;}
	.st5{fill:#FFCD1E;}
	.st6{fill:#FE9200;}
	.st7{fill:#DC2A32;}
</style>
<path class="st0" d="M157.8,157.84L61.29,61.07c-9.84,9.82-18.2,21.13-24.69,33.57c0,0,40.39,40.11,62.75,63.2h32.07
	c5.43,0,5.43,0,9.45,0C149.66,157.84,153.06,157.95,157.8,157.84z"/>
<path class="st1" d="M140.87,157.89c-4.02,0-4.02,0-9.45,0H99.35c-22.36,23.09-62.75,63.2-62.75,63.2
	c6.49,12.44,14.85,23.75,24.69,33.57l96.51-96.77C153.06,157.78,149.66,157.89,140.87,157.89z"/>
<path class="st2" d="M157.98,157.89L61.21,254.4c9.82,9.84,21.13,18.2,33.57,24.69c0,0,40.11-40.39,63.2-62.75v-32.07
	c0-5.43,0-5.43,0-9.45C157.98,166.03,158.09,162.63,157.98,157.89z"/>
<path class="st3" d="M158.03,174.82c0,4.02,0,4.02,0,9.45v32.07c23.09,22.36,63.2,62.75,63.2,62.75
	c12.44-6.49,23.75-14.85,33.57-24.69l-96.77-96.51C157.92,162.63,158.03,166.03,158.03,174.82z"/>
<path class="st4" d="M157.99,157.81l96.51,96.77c9.84-9.82,18.2-21.13,24.69-33.57c0,0-40.39-40.11-62.75-63.2h-32.07
	c-5.43,0-5.43,0-9.45,0C166.13,157.81,162.73,157.7,157.99,157.81z"/>
<path class="st5" d="M174.92,157.76c4.02,0,4.02,0,9.45,0h32.07c22.36-23.09,62.75-63.2,62.75-63.2
	c-6.49-12.44-14.85-23.75-24.69-33.57l-96.51,96.77C162.73,157.87,166.13,157.76,174.92,157.76z"/>
<path class="st6" d="M157.81,157.76l96.77-96.51c-9.82-9.84-21.13-18.2-33.57-24.69c0,0-40.11,40.39-63.2,62.75v32.07
	c0,5.43,0,5.43,0,9.45C157.81,149.62,157.7,153.02,157.81,157.76z"/>
<path class="st7" d="M157.76,140.83c0-4.02,0-4.02,0-9.45V99.31c-23.09-22.36-63.2-62.75-63.2-62.75
	c-12.44,6.49-23.75,14.85-33.57,24.69l96.77,96.51C157.87,153.02,157.76,149.62,157.76,140.83z"/>
</svg>
