<?xml version="1.0" encoding="utf-8"?>
<svg version="1.1"
    id="Слой_1"
    xmlns="http://www.w3.org/2000/svg"
    xmlns:xlink="http://www.w3.org/1999/xlink"
    x="0px"
    y="0px"
	viewBox="0 0 54.1 52.34"
    style="enable-background:new 0 0 54.1 52.34;"
    xml:space="preserve">

    <path
        class="st11"
        fill="#DC2A32"
        d="M32.23,21.74l-5.14-8.24c-0.01,0.02-0.03,0.05-0.04,0.06c-0.09-0.11-0.99-1.48-1.41-1.99
            c-2.98-3.6-8.58-4.92-12.85-3c-3.57,1.6-5.87,4.28-6.68,8.1c-0.81,3.82,0.14,7.27,2.87,10.07c4.35,4.46,17.98,17.86,18.07,17.92
            c0,0,0.02-0.02,0.04-0.04L21.88,29.5L32.23,21.74z">

            <animate
            attributeName="d"
            dur="0.5s"
            fill="freeze"
            repeatCount="1"
            restart="always"
            values="M32.23,21.74l-5.14-8.24c-0.01,0.02-0.03,0.05-0.04,0.06c-0.09-0.11-0.99-1.48-1.41-1.99
                c-2.98-3.6-8.58-4.92-12.85-3c-3.57,1.6-5.87,4.28-6.68,8.1c-0.81,3.82,0.14,7.27,2.87,10.07c4.35,4.46,17.98,17.86,18.07,17.92
                c0,0,0.02-0.02,0.04-0.04L21.88,29.5L32.23,21.74z;
                M28.23,21.74l-5.14-8.24c-0.01,0.02-0.03,0.05-0.04,0.06c-0.09-0.11-0.99-1.48-1.41-1.99
	            c-2.98-3.6-8.58-4.92-12.85-3c-3.57,1.6-5.87,4.28-6.68,8.1c-0.81,3.82,0.14,7.27,2.87,10.07c4.35,4.46,17.98,17.86,18.07,17.92
	            c0,0,0.02-0.02,0.04-0.04L17.88,29.5L28.23,21.74z">
		</animate>
        <animate
            attributeName="fill"
            dur="0.5s"
            fill="freeze"
            repeatCount="1"
            restart="always"
            values="#DC2A32;#d3b3a3">
		</animate>
    </path>
    <path 
        class="st11"
        fill="#DC2A32"
        d="M45.12,26.73c2.73-2.8,3.68-6.25,2.87-10.07c-0.81-3.82-3.11-6.5-6.68-8.1c-4.27-1.92-9.86-0.6-12.85,3
            c-0.39,0.47-1.19,1.68-1.37,1.94l5.14,8.24L21.88,29.5l5.21,15.11C27.9,43.85,40.89,31.07,45.12,26.73z">
    <animate
            attributeName="d"
            dur="0.5s"
            fill="freeze"
            repeatCount="1"
            restart="always"
            values="M45.12,26.73c2.73-2.8,3.68-6.25,2.87-10.07c-0.81-3.82-3.11-6.5-6.68-8.1c-4.27-1.92-9.86-0.6-12.85,3
                c-0.39,0.47-1.19,1.68-1.37,1.94l5.14,8.24L21.88,29.5l5.21,15.11C27.9,43.85,40.89,31.07,45.12,26.73z;
                M49.12,26.73c2.73-2.8,3.68-6.25,2.87-10.07c-0.81-3.82-3.11-6.5-6.68-8.1c-4.27-1.92-9.86-0.6-12.85,3
	            c-0.39,0.47-1.19,1.68-1.37,1.94l5.14,8.24L25.88,29.5l5.21,15.11C31.9,43.85,44.89,31.07,49.12,26.73z">
		</animate>
        <animate
            attributeName="fill"
            dur="0.5s"
            fill="freeze"
            repeatCount="1"
            restart="always"
            values="#DC2A32;#d3b3a3">
		</animate>
    </path>
</svg>
