<?xml version="1.0" encoding="utf-8"?>
<!-- Generator: Adobe Illustrator 24.0.1, SVG Export Plug-In . SVG Version: 6.00 Build 0)  -->
<svg version="1.1" id="Слой_1" xmlns="http://www.w3.org/2000/svg" xmlns:xlink="http://www.w3.org/1999/xlink" x="0px" y="0px"
	 viewBox="0 0 54.1 52.34" style="enable-background:new 0 0 54.1 52.34;" xml:space="preserve">
<style type="text/css">
	.st0{fill:#EAEAEA;}
	.st1{fill:#D3B3A3;}
	.st2{fill:#1E1C21;}
	.st3{opacity:0.1;}
	.st4{fill:#EBEBEB;}
	.st5{opacity:0.2;}
	.st6{opacity:0.5;}
	.st7{fill:#190F1F;}
	.st8{fill:none;stroke:#1E1C21;stroke-width:7;stroke-miterlimit:10;}
	.st9{fill:none;stroke:#E2D2C9;stroke-width:7;stroke-miterlimit:10;}
	.st10{fill:#B33F7E;}
	.st11{fill:#DC2A32;}
	.st12{fill:#652CAC;}
	.st13{fill:#025F8C;}
	.st14{fill:#2D8349;}
	.st15{fill:#328B88;}
	.st16{fill:#FFCD1E;}
	.st17{fill:#FE9200;}
	.st18{opacity:0.4;}
	.st19{fill:#FFFFFF;}
</style>
<path d="M47.99,16.66c-0.81-3.82-3.11-6.5-6.68-8.1c-4.27-1.92-9.86-0.6-12.85,3c-0.42,0.51-1.33,1.88-1.41,1.99
	c-0.09-0.11-0.99-1.48-1.41-1.99c-2.98-3.6-8.58-4.92-12.85-3c-3.57,1.6-5.87,4.28-6.68,8.1c-0.81,3.82,0.14,7.27,2.87,10.07
	c4.35,4.46,17.98,17.86,18.07,17.92c0.1-0.06,13.72-13.46,18.07-17.92C47.85,23.94,48.8,20.49,47.99,16.66z"/>
</svg>
