<?xml version="1.0" encoding="utf-8"?>
<!-- Generator: Adobe Illustrator 24.0.1, SVG Export Plug-In . SVG Version: 6.00 Build 0)  -->
<svg version="1.1" id="Слой_1" xmlns="http://www.w3.org/2000/svg" xmlns:xlink="http://www.w3.org/1999/xlink" x="0px" y="0px"
	 viewBox="0 0 108.18 126.04" style="enable-background:new 0 0 108.18 126.04;" xml:space="preserve">
<style type="text/css">
	.st0{fill:#EAEAEA;}
	.st1{fill:#D3B3A3;}
	.st2{fill:#1E1C21;}
	.st3{opacity:0.1;}
	.st4{fill:#EBEBEB;}
	.st5{opacity:0.2;}
	.st6{opacity:0.5;}
	.st7{fill:#190F1F;}
	.st8{fill:none;stroke:#1E1C21;stroke-width:7;stroke-miterlimit:10;}
	.st9{fill:none;stroke:#E2D2C9;stroke-width:7;stroke-miterlimit:10;}
	.st10{fill:#B33F7E;}
	.st11{fill:#DC2A32;}
	.st12{fill:#652CAC;}
	.st13{fill:#025F8C;}
	.st14{fill:#2D8349;}
	.st15{fill:#328B88;}
	.st16{fill:#FFCD1E;}
	.st17{fill:#FE9200;}
	.st18{opacity:0.4;}
	.st19{fill:#FFFFFF;}
</style>
<g>
	<g class="st5">
		<path class="st4" d="M33.92,58.21c-4.47,0-8.74,0.87-12.65,2.45c0.69,1.03,1.1,2.28,1.1,3.61c0,3.43-2.65,6.23-6.02,6.48
			c0.76,1.07,1.21,2.37,1.21,3.78c0,3.6-2.92,6.52-6.52,6.52c-0.62,0-1.22-0.09-1.8-0.26c0.06,0.37,0.1,0.76,0.1,1.15
			c0,3.84-3.11,6.96-6.96,6.96c-0.77,0-1.51-0.13-2.2-0.36C0.07,89.72,0,90.91,0,92.13c0,18.73,15.19,33.92,33.92,33.92
			s33.92-15.19,33.92-33.92C67.84,73.39,52.65,58.21,33.92,58.21z"/>
	</g>
	<g>
		<g>
			<path class="st1" d="M57.35,92.35c3.07,0.15,5.59,0.24,8.11,0.41c2.04,0.14,3.38,1.14,3.37,3.35c-0.01,2.24-1.3,3.54-3.45,3.67
				c-2.5,0.16-5.01,0.04-7.82,0.04c0,2.13,0.03,3.97-0.01,5.81c-0.09,5.15-0.12,10.29-0.34,15.43c-0.09,2.1-1.29,3.47-3.58,3.56
				c-2.27,0.1-3.87-0.91-4.42-3.09c-0.4-1.61-0.54-3.32-0.56-5c-0.07-5.51-0.02-11.03-0.02-16.53c-1.94-0.31-3.42-0.49-4.88-0.78
				c-1.9-0.38-3.29-1.62-2.78-3.5c0.34-1.26,1.66-2.53,2.87-3.18c1.21-0.65,3.7-0.09,4.09-0.86c0.74-1.43,0.46-3.43,0.45-5.2
				C48.33,60.24,48.26,34,48.23,7.75c0-1.58,0.09-3.19,0.42-4.73c0.46-2.11,1.94-3.08,4.12-3.02c2.07,0.06,3.42,1.03,3.79,3.05
				c0.3,1.65,0.46,3.34,0.47,5.01c0.13,26.81,0.22,53.61,0.31,80.42C57.35,89.68,57.35,90.88,57.35,92.35z"/>
			<path class="st1" d="M83.68,112.77c1.29-2.6,2.5-5.24,3.9-7.78c2.32-4.19,5.33-4.16,7.69,0.05c1.49,2.65,2.81,5.39,4.61,7.94
				c0-2.85-0.01-5.69,0-8.54c0.02-3.09-0.17-6.21,0.22-9.25c0.15-1.14,1.48-2.58,2.62-3.03c1.75-0.69,3.62-0.05,4.49,1.85
				c0.53,1.16,0.88,2.51,0.9,3.77c0.09,6.75,0.09,13.5,0.01,20.26c-0.03,2.59-0.49,5.16-3.38,6.21c-2.8,1.01-6.46-0.14-8.16-2.94
				c-1.98-3.26-3.52-6.78-5.48-10.62c-0.61,1.4-1,2.6-1.62,3.67c-1.54,2.66-2.82,5.59-4.88,7.79c-3.42,3.66-8.58,1.91-9.58-3.01
				c-0.3-1.46-0.32-2.98-0.32-4.48c0.01-5.35,0.07-10.69,0.16-16.04c0.02-1.21,0.11-2.44,0.36-3.63c0.48-2.26,2.01-3.3,4.28-3.22
				c2.17,0.08,3.74,1.24,3.78,3.39c0.11,4.86-0.09,9.73-0.16,14.59c-0.01,0.98,0,1.96,0,2.94
				C83.33,112.75,83.51,112.76,83.68,112.77z"/>
		</g>
	</g>
</g>
</svg>
