<?xml version="1.0" encoding="utf-8"?>
<!-- Generator: Adobe Illustrator 24.0.1, SVG Export Plug-In . SVG Version: 6.00 Build 0)  -->
<svg version="1.1" id="Слой_1" xmlns="http://www.w3.org/2000/svg" xmlns:xlink="http://www.w3.org/1999/xlink" x="0px" y="0px"
	 viewBox="0 0 289.22 156.43" style="enable-background:new 0 0 289.22 156.43;" xml:space="preserve">
<style type="text/css">
	.st0{fill:#EAEAEA;}
	.st1{fill:#D3B3A3;}
	.st2{fill:#1E1C21;}
	.st3{opacity:0.1;}
	.st4{fill:#EBEBEB;}
	.st5{opacity:0.2;}
	.st6{opacity:0.5;}
	.st7{fill:#190F1F;}
	.st8{fill:none;stroke:#1E1C21;stroke-width:7;stroke-miterlimit:10;}
	.st9{fill:none;stroke:#E2D2C9;stroke-width:7;stroke-miterlimit:10;}
	.st10{fill:#B33F7E;}
	.st11{fill:#DC2A32;}
	.st12{fill:#652CAC;}
	.st13{fill:#025F8C;}
	.st14{fill:#2D8349;}
	.st15{fill:#328B88;}
	.st16{fill:#FFCD1E;}
	.st17{fill:#FE9200;}
	.st18{opacity:0.4;}
	.st19{fill:#FFFFFF;}
</style>
<g>
	<g>
		<g class="st6">
			<path class="st1" d="M55.41,11.35c-7.31,0-14.28,1.43-20.67,4c1.13,1.69,1.79,3.72,1.79,5.9c0,5.6-4.34,10.18-9.83,10.59
				c1.24,1.74,1.98,3.87,1.98,6.17c0,5.88-4.77,10.65-10.65,10.65c-1.02,0-2-0.15-2.93-0.42c0.1,0.61,0.17,1.24,0.17,1.88
				c0,6.28-5.09,11.36-11.36,11.36c-1.26,0-2.46-0.21-3.59-0.59C0.11,62.83,0,64.78,0,66.76c0,30.6,24.81,55.41,55.41,55.41
				s55.41-24.81,55.41-55.41C110.82,36.16,86.01,11.35,55.41,11.35z"/>
		</g>
		<g>
			<path class="st2" d="M246.47,66.25c1.11,0.1,2.05,0.18,2.99,0.28c7.96,0.88,11.7,6.33,9.68,14.09
				c-1.73,6.6-8.92,11.07-15.64,9.72c-1.7-0.34-2.9-1.31-3.25-2.98c-0.31-1.44-0.44-2.96-0.41-4.44c0.5-24.46,1.03-48.91,1.58-73.36
				c0.05-2.03,0.1-4.08,0.39-6.08c0.23-1.63,1.29-2.66,3.08-2.68c1.38-0.01,2.42,0.51,2.69,1.95c0.2,1.06,0.35,2.15,0.32,3.22
				c-0.45,18.41-0.94,36.81-1.41,55.22C246.43,62.8,246.47,64.42,246.47,66.25z M246.2,85.61c4.92-1.04,7.72-5.06,7.06-9.93
				c-0.4-2.95-3.3-4.98-7.06-4.81C246.2,75.73,246.2,80.59,246.2,85.61z"/>
			<path class="st2" d="M147.87,82.92c1.25-2.45,2.49-4.91,3.76-7.36c1.06-2.05,2.08-4.12,3.22-6.12c0.77-1.34,1.96-2.18,3.58-1.53
				c1.73,0.7,1.58,2.28,1.23,3.67c-0.32,1.23-0.9,2.42-1.55,3.52c-2.31,3.91-4.76,7.75-7.03,11.69c-0.5,0.87-0.71,2.03-0.7,3.06
				c0.26,20.04,0.58,40.08,0.85,60.12c0.02,1.41-0.11,2.85-0.34,4.24c-0.22,1.32-1.02,2.19-2.5,2.22c-1.51,0.04-2.73-0.48-3.19-1.98
				c-0.33-1.09-0.52-2.26-0.54-3.4c-0.3-20.79-0.55-41.57-0.87-62.36c-0.02-1.31-0.35-2.68-0.83-3.91
				c-1.57-3.97-3.31-7.89-4.93-11.84c-0.38-0.93-0.64-1.93-0.83-2.93c-0.32-1.71,0.13-3.14,1.91-3.78c1.68-0.6,3.41,0.23,4.08,2.09
				c0.72,1.97,1.26,4.02,1.83,6.04c0.79,2.8,1.53,5.61,2.29,8.42C147.5,82.83,147.69,82.87,147.87,82.92z"/>
			<path class="st2" d="M64.56,66.94c2.23,0.11,4.05,0.17,5.87,0.3c1.48,0.1,2.45,0.83,2.44,2.43c-0.01,1.63-0.94,2.56-2.5,2.66
				c-1.81,0.11-3.63,0.03-5.67,0.03c0,1.55,0.02,2.88,0,4.21c-0.06,3.73-0.09,7.46-0.25,11.19c-0.06,1.52-0.94,2.51-2.6,2.58
				c-1.65,0.07-2.81-0.66-3.2-2.24c-0.29-1.17-0.39-2.41-0.41-3.62c-0.05-4-0.02-7.99-0.02-11.98c-1.41-0.22-2.48-0.36-3.53-0.57
				c-1.38-0.27-2.39-1.18-2.02-2.54c0.25-0.91,1.2-1.83,2.08-2.31c0.88-0.47,2.68-0.07,2.97-0.62c0.54-1.04,0.33-2.49,0.33-3.77
				c-0.03-19.02-0.08-38.04-0.1-57.07c0-1.15,0.07-2.32,0.31-3.43c0.33-1.53,1.4-2.23,2.99-2.19c1.5,0.04,2.48,0.75,2.75,2.21
				c0.22,1.19,0.34,2.42,0.34,3.63c0.09,19.43,0.16,38.86,0.23,58.29C64.57,65.01,64.56,65.88,64.56,66.94z"/>
			<path class="st2" d="M128.35,72.58c0,3.49,0.03,6.94-0.01,10.38c-0.02,1.63-0.09,3.26-0.27,4.87c-0.16,1.41-0.91,2.39-2.48,2.49
				c-1.63,0.1-2.83-0.56-3.26-2.15c-0.3-1.1-0.42-2.27-0.43-3.41c-0.05-4.06-0.02-8.13-0.02-12.28c-1.28-0.2-2.33-0.36-3.38-0.54
				c-1.49-0.25-2.32-1.09-2.24-2.65c0.08-1.47,1-2.12,2.36-2.35c3.16-0.52,3.17-0.53,3.15-3.85c-0.07-19.02-0.14-38.04-0.2-57.06
				c0-1.22,0.08-2.44,0.28-3.64c0.27-1.64,1.3-2.44,3-2.41c1.63,0.03,2.56,0.88,2.8,2.4c0.2,1.27,0.28,2.56,0.29,3.85
				c0.08,19.43,0.17,38.85,0.17,58.28c0,1.91,0.48,2.73,2.46,2.57c1.21-0.09,2.44,0.06,3.66,0.16c1.4,0.12,2.27,0.86,2.31,2.34
				c0.03,1.52-0.78,2.52-2.24,2.67c-1.68,0.18-3.39,0.08-5.08,0.11C128.96,72.4,128.71,72.5,128.35,72.58z"/>
			<path class="st2" d="M191.09,81.96c0.94-1.88,1.81-3.8,2.83-5.64c1.68-3.04,3.86-3.02,5.57,0.04c1.08,1.92,2.04,3.9,3.34,5.76
				c0-2.06-0.01-4.13,0-6.19c0.01-2.24-0.12-4.5,0.16-6.7c0.11-0.83,1.08-1.87,1.9-2.2c1.27-0.5,2.63-0.03,3.25,1.34
				c0.38,0.84,0.64,1.82,0.65,2.74c0.06,4.89,0.07,9.79,0.01,14.68c-0.02,1.88-0.36,3.74-2.45,4.5c-2.03,0.74-4.68-0.1-5.91-2.13
				c-1.43-2.36-2.55-4.91-3.97-7.7c-0.44,1.01-0.72,1.88-1.17,2.66c-1.12,1.92-2.04,4.06-3.53,5.65c-2.48,2.65-6.22,1.38-6.94-2.18
				c-0.21-1.05-0.23-2.16-0.23-3.25c0.01-3.87,0.05-7.75,0.12-11.62c0.01-0.88,0.08-1.77,0.26-2.63c0.35-1.64,1.46-2.4,3.11-2.33
				c1.57,0.06,2.71,0.9,2.74,2.46c0.08,3.52-0.07,7.05-0.12,10.58c-0.01,0.71,0,1.42,0,2.13C190.84,81.95,190.96,81.95,191.09,81.96
				z"/>
			<path class="st2" d="M94.56,78.18c0,2.24,0.03,4.49-0.01,6.73c-0.07,4.46-1.65,5.95-6.14,5.83c-6.44-0.17-11.27-3.4-12.79-8.55
				c-1.44-4.88-0.05-9.06,4.07-12.03c3.23-2.32,6.89-3.48,10.85-3.66c2.58-0.12,3.84,0.92,3.99,3.52
				C94.69,72.74,94.57,75.47,94.56,78.18z M88.46,85.84c0-4.79,0-9.45,0-14.18c-5.32,1.79-7.52,4.19-7.09,7.56
				C81.86,83.13,84.32,85.47,88.46,85.84z"/>
			<path class="st2" d="M220.96,82.22c1.1,2.79,3.44,3.45,5.87,3.93c1.06,0.21,2.24,0.11,3.19,0.52c2.38,1.02,0.92,3.91,0.16,4.15
				c-4.24,1.33-11.39-1.19-13.75-4.68c-2.67-3.96-2.35-10.69,0.7-14.82c3.04-4.11,8.91-6.04,13.65-4.5
				c3.11,1.02,4.41,3.72,3.52,7.42c-0.91,3.79-3.59,5.83-7.12,6.83C225.24,81.62,223.2,81.82,220.96,82.22z M220.8,78.3
				c1.4-0.3,2.92-0.32,4.08-0.97c1.39-0.77,2.71-1.92,3.61-3.21c0.46-0.66,0.31-2.47-0.25-2.93c-0.69-0.56-2.19-0.57-3.17-0.27
				C222.54,71.72,220.7,74.97,220.8,78.3z"/>
			<path class="st2" d="M113.48,68.19c1.06,1.17,0.17,2.97-1.54,3.32c-1.19,0.24-2.48,0.25-3.54,0.76c-0.8,0.38-1.68,1.33-1.81,2.15
				c-0.1,0.61,0.83,1.53,1.49,2.09c0.65,0.55,1.56,0.8,2.33,1.22c3.53,1.94,4.62,5.76,2.47,9.19c-1.82,2.92-4.51,4.53-8.02,4.16
				c-0.86-0.09-2.03-0.95-2.34-1.73c-0.5-1.25,0.53-2.07,1.72-2.54c0.81-0.32,1.68-0.62,2.35-1.15c1.61-1.3,1.41-3.28-0.38-4.3
				c-1-0.57-2.08-1-3.06-1.61c-4.04-2.52-3.74-7.01-0.25-10.23C105.88,66.76,112.09,66.65,113.48,68.19z"/>
		</g>
		<g>
			<g>
				<path class="st2" d="M187.82,108.13h-0.91v3.11h-1.25v-7.3h1.25v3.09h0.82l2.46-3.09h1.51l-2.89,3.51l3.13,3.79h-1.59
					L187.82,108.13z"/>
				<path class="st2" d="M192.53,107.52c0-0.72,0.14-1.36,0.42-1.93c0.28-0.57,0.67-1.01,1.17-1.32s1.07-0.47,1.72-0.47
					c0.99,0,1.8,0.34,2.41,1.03c0.61,0.69,0.92,1.6,0.92,2.75v0.09c0,0.71-0.14,1.35-0.41,1.91s-0.66,1-1.17,1.32
					s-1.09,0.47-1.74,0.47c-0.99,0-1.79-0.34-2.41-1.03c-0.61-0.69-0.92-1.6-0.92-2.73V107.52z M193.79,107.67
					c0,0.81,0.19,1.46,0.56,1.95s0.88,0.74,1.51,0.74c0.63,0,1.14-0.25,1.51-0.75c0.37-0.5,0.56-1.19,0.56-2.09
					c0-0.8-0.19-1.45-0.57-1.95c-0.38-0.5-0.88-0.75-1.51-0.75c-0.62,0-1.11,0.25-1.49,0.74S193.79,106.75,193.79,107.67z"/>
				<path class="st2" d="M206.62,103.94v7.3h-1.25v-6.27h-2.48l-0.15,2.73c-0.08,1.25-0.29,2.15-0.63,2.69
					c-0.34,0.54-0.88,0.82-1.62,0.84h-0.5v-1.1l0.36-0.03c0.4-0.04,0.69-0.28,0.87-0.7c0.18-0.42,0.29-1.21,0.34-2.35l0.14-3.12
					H206.62z"/>
				<path class="st2" d="M214.61,103.94v7.3h-1.25v-6.27h-2.48l-0.15,2.73c-0.08,1.25-0.29,2.15-0.63,2.69
					c-0.34,0.54-0.88,0.82-1.62,0.84h-0.5v-1.1l0.36-0.03c0.4-0.04,0.69-0.28,0.87-0.7c0.18-0.42,0.29-1.21,0.34-2.35l0.14-3.12
					H214.61z"/>
				<path class="st2" d="M219.64,111.37c-0.99,0-1.79-0.32-2.42-0.97s-0.93-1.52-0.93-2.61v-0.23c0-0.72,0.14-1.37,0.42-1.94
					c0.28-0.57,0.66-1.01,1.16-1.34c0.5-0.32,1.04-0.48,1.62-0.48c0.95,0,1.69,0.31,2.21,0.94c0.53,0.63,0.79,1.52,0.79,2.69v0.52
					h-4.95c0.02,0.72,0.23,1.3,0.63,1.74s0.91,0.66,1.53,0.66c0.44,0,0.81-0.09,1.12-0.27c0.31-0.18,0.57-0.42,0.8-0.72l0.76,0.59
					C221.78,110.9,220.86,111.37,219.64,111.37z M219.48,104.83c-0.5,0-0.93,0.18-1.27,0.55c-0.34,0.37-0.55,0.88-0.63,1.54h3.66
					v-0.09c-0.04-0.63-0.21-1.13-0.51-1.47C220.42,105,220.01,104.83,219.48,104.83z"/>
				<path class="st2" d="M226.2,108.13h-0.91v3.11h-1.25v-7.3h1.25v3.09h0.82l2.46-3.09h1.51l-2.89,3.51l3.13,3.79h-1.59
					L226.2,108.13z"/>
				<path class="st2" d="M231.5,103.94h1.25v6.28h3.36v-6.28h1.25v6.28h0.87l-0.12,3.18h-1.12v-2.17h-5.49V103.94z"/>
				<path class="st2" d="M244.3,103.94h1.25v7.3h-1.25v-5.32l-3.37,5.32h-1.25v-7.3h1.25v5.33L244.3,103.94z"/>
				<path class="st2" d="M253.13,103.94v7.3h-1.25v-2.84h-1.88l-1.72,2.84h-1.35l1.84-3.03c-0.47-0.17-0.83-0.44-1.08-0.79
					c-0.25-0.36-0.37-0.77-0.37-1.25c0-0.67,0.25-1.2,0.75-1.61c0.5-0.41,1.17-0.61,2-0.62H253.13z M248.56,106.18
					c0,0.35,0.12,0.64,0.36,0.86s0.56,0.33,0.96,0.33h1.98v-2.42h-1.79c-0.46,0-0.83,0.11-1.11,0.34
					C248.7,105.52,248.56,105.81,248.56,106.18z"/>
				<path class="st2" d="M263.28,103.94h1.25v7.3h-1.25v-5.32l-3.37,5.32h-1.25v-7.3h1.25v5.33L263.28,103.94z"/>
				<path class="st2" d="M266.47,110.22l0.43-0.53c0.49-0.63,0.76-1.57,0.83-2.83l0.11-2.91h4.7v6.28h0.94v3.16h-1.25v-2.15h-5.09
					v2.15h-1.25l0.01-3.16H266.47z M267.95,110.22h3.35v-5.13h-2.25l-0.07,1.74C268.9,108.28,268.56,109.41,267.95,110.22z"/>
				<path class="st2" d="M277.9,111.37c-0.99,0-1.79-0.32-2.42-0.97s-0.93-1.52-0.93-2.61v-0.23c0-0.72,0.14-1.37,0.42-1.94
					c0.28-0.57,0.66-1.01,1.16-1.34c0.5-0.32,1.04-0.48,1.62-0.48c0.95,0,1.69,0.31,2.21,0.94c0.53,0.63,0.79,1.52,0.79,2.69v0.52
					h-4.95c0.02,0.72,0.23,1.3,0.63,1.74s0.91,0.66,1.53,0.66c0.44,0,0.81-0.09,1.12-0.27c0.31-0.18,0.57-0.42,0.8-0.72l0.76,0.59
					C280.04,110.9,279.12,111.37,277.9,111.37z M277.74,104.83c-0.5,0-0.93,0.18-1.27,0.55c-0.34,0.37-0.55,0.88-0.63,1.54h3.66
					v-0.09c-0.04-0.63-0.21-1.13-0.51-1.47C278.68,105,278.26,104.83,277.74,104.83z"/>
				<path class="st2" d="M286.91,103.94h1.25v7.3h-1.25v-5.32l-3.37,5.32h-1.25v-7.3h1.25v5.33L286.91,103.94z M287.25,101.27
					c0,0.55-0.19,0.99-0.56,1.32s-0.86,0.5-1.46,0.5c-0.6,0-1.09-0.17-1.46-0.5c-0.37-0.33-0.56-0.77-0.56-1.31h1.02
					c0,0.31,0.09,0.56,0.26,0.74s0.42,0.27,0.75,0.27c0.31,0,0.56-0.09,0.74-0.26c0.18-0.18,0.27-0.42,0.27-0.74H287.25z"/>
			</g>
		</g>
	</g>
</g>
</svg>
