<?xml version="1.0" encoding="utf-8"?>
<!-- Generator: Adobe Illustrator 24.0.1, SVG Export Plug-In . SVG Version: 6.00 Build 0)  -->
<svg version="1.1" id="Слой_1" xmlns="http://www.w3.org/2000/svg" xmlns:xlink="http://www.w3.org/1999/xlink" x="0px" y="0px"
	 viewBox="0 0 34 34" style="enable-background:new 0 0 34 34;" xml:space="preserve">
<style type="text/css">
	.st0{fill:#1E1C21;}
	.st1{fill:#EAEAEA;}
	.st2{fill:#D3B3A3;}
	.st3{opacity:0.1;}
	.st4{fill:#EBEBEB;}
	.st5{opacity:0.2;}
	.st6{opacity:0.5;}
	.st7{fill:#190F1F;}
	.st8{fill:none;stroke:#1E1C21;stroke-width:7;stroke-miterlimit:10;}
	.st9{fill:none;stroke:#E2D2C9;stroke-width:7;stroke-miterlimit:10;}
	.st10{fill:#B33F7E;}
	.st11{fill:#DC2A32;}
	.st12{fill:#652CAC;}
	.st13{fill:#025F8C;}
	.st14{fill:#2D8349;}
	.st15{fill:#328B88;}
	.st16{fill:#FFCD1E;}
	.st17{fill:#FE9200;}
	.st18{opacity:0.4;}
	.st19{fill:#FFFFFF;}
	.st20{fill:#606060;}
	.st21{fill:none;}
	.st22{fill:none;stroke:#D3B3A3;stroke-width:5;stroke-miterlimit:10;}
</style>
<path class="st2" d="M17,0C9.9,0,3.81,4.37,1.27,10.57h5.03C8.48,6.94,12.46,4.49,17,4.49c6.06,0,11.12,4.33,12.26,10.06H15.01
	l3.16-3.16c0.96-0.96,0.96-2.51,0-3.46c-0.48-0.48-1.1-0.72-1.73-0.72c-0.63,0-1.25,0.24-1.73,0.72l-7.34,7.34
	c-0.06,0.06-0.11,0.12-0.16,0.18c-0.01,0.01-0.02,0.03-0.03,0.04c-0.04,0.05-0.08,0.1-0.11,0.15c-0.01,0.01-0.02,0.03-0.03,0.04
	c-0.03,0.05-0.07,0.11-0.1,0.16c-0.01,0.01-0.01,0.02-0.01,0.03C6.9,15.94,6.87,16,6.84,16.06c0,0.01,0,0.01-0.01,0.02
	c-0.03,0.07-0.05,0.13-0.07,0.2c0,0.01,0,0.02-0.01,0.02c-0.02,0.07-0.04,0.14-0.05,0.21c0,0.02-0.01,0.04-0.01,0.06
	c-0.01,0.06-0.02,0.12-0.03,0.18C6.66,16.84,6.66,16.92,6.66,17c0,0.08,0,0.16,0.01,0.24c0.01,0.06,0.02,0.12,0.03,0.18
	c0,0.02,0.01,0.04,0.01,0.06c0.01,0.07,0.03,0.14,0.05,0.21c0,0.01,0,0.01,0.01,0.02c0.02,0.07,0.05,0.14,0.07,0.21
	c0,0.01,0,0.01,0.01,0.02C6.87,18,6.9,18.06,6.93,18.13c0,0.01,0.01,0.02,0.01,0.03c0.03,0.06,0.06,0.11,0.1,0.17
	c0.01,0.01,0.02,0.03,0.02,0.04c0.04,0.05,0.07,0.1,0.11,0.15c0.01,0.01,0.02,0.03,0.03,0.04c0.05,0.06,0.1,0.12,0.16,0.18
	l7.34,7.34c0.96,0.96,2.51,0.96,3.46,0c0.96-0.96,0.96-2.51,0-3.46l-3.16-3.16h14.25C28.12,25.18,23.06,29.51,17,29.51
	c-4.54,0-8.52-2.44-10.71-6.08H1.27C3.81,29.63,9.9,34,17,34c9.37,0,17-7.63,17-17C34,7.63,26.37,0,17,0z"/>
</svg>
