<?xml version="1.0" encoding="utf-8"?>
<!-- Generator: Adobe Illustrator 24.0.1, SVG Export Plug-In . SVG Version: 6.00 Build 0)  -->
<svg version="1.1" id="Слой_1" xmlns="http://www.w3.org/2000/svg" xmlns:xlink="http://www.w3.org/1999/xlink" x="0px" y="0px"
	 viewBox="0 0 315.68 315.68" style="enable-background:new 0 0 315.68 315.68;" xml:space="preserve">
<style type="text/css">
	.st0{fill:#B33F7E;}
	.st1{fill:#652CAC;}
	.st2{fill:#025F8C;}
	.st3{fill:#328B88;}
	.st4{fill:#2D8349;}
	.st5{fill:#FFCD1E;}
	.st6{fill:#FE9200;}
	.st7{fill:#DC2A32;}
</style>
<path class="st0" d="M107.78,107.56L61.29,61.07c-9.84,9.82-18.2,21.13-24.69,33.57c-9.87,18.9-15.46,40.4-15.46,63.2h65.75
	c0-4.06,0.34-8.04,1-11.91C90.4,131.05,97.54,117.76,107.78,107.56z"/>
<path class="st1" d="M87.89,169.8c-0.66-3.87-1-7.85-1-11.91H21.14c0,22.8,5.59,44.3,15.46,63.2c6.49,12.44,14.85,23.75,24.69,33.57
	l46.49-46.49C97.54,197.97,90.4,184.68,87.89,169.8z"/>
<path class="st2" d="M107.7,207.91L61.21,254.4c9.82,9.84,21.13,18.2,33.57,24.69c18.9,9.87,40.4,15.46,63.2,15.46V228.8
	c-4.06,0-8.04-0.34-11.91-1C131.19,225.29,117.9,218.15,107.7,207.91z"/>
<path class="st3" d="M169.94,227.8c-3.87,0.66-7.85,1-11.91,1v65.75c22.8,0,44.3-5.59,63.2-15.46
	c12.44-6.49,23.75-14.85,33.57-24.69l-46.49-46.49C198.11,218.15,184.82,225.29,169.94,227.8z"/>
<path class="st4" d="M208.01,208.09l46.49,46.49c9.84-9.82,18.2-21.13,24.69-33.57c9.87-18.9,15.46-40.4,15.46-63.2H228.9
	c0,4.06-0.34,8.04-1,11.91C225.39,184.6,218.25,197.89,208.01,208.09z"/>
<path class="st5" d="M227.9,145.85c0.66,3.87,1,7.85,1,11.91h65.75c0-22.8-5.59-44.3-15.46-63.2
	c-6.49-12.44-14.85-23.75-24.69-33.57l-46.49,46.49C218.25,117.68,225.39,130.97,227.9,145.85z"/>
<path class="st6" d="M208.09,107.74l46.49-46.49c-9.82-9.84-21.13-18.2-33.57-24.69c-18.9-9.87-40.4-15.46-63.2-15.46v65.75
	c4.06,0,8.04,0.34,11.91,1C184.6,90.36,197.89,97.5,208.09,107.74z"/>
<path class="st7" d="M145.85,87.85c3.87-0.66,7.85-1,11.91-1V21.1c-22.8,0-44.3,5.59-63.2,15.46
	c-12.44,6.49-23.75,14.85-33.57,24.69l46.49,46.49C117.68,97.5,130.97,90.36,145.85,87.85z"/>
</svg>
