<?xml version="1.0" encoding="utf-8"?>
<!-- Generator: Adobe Illustrator 24.0.1, SVG Export Plug-In . SVG Version: 6.00 Build 0)  -->
<svg version="1.1" id="like" xmlns="http://www.w3.org/2000/svg" xmlns:xlink="http://www.w3.org/1999/xlink" x="0px" y="0px"
	 viewBox="0 0 42.4 37" style="enable-background:new 0 0 42.4 37;" xml:space="preserve">
<style type="text/css">
	.st0{fill:#FFFFFF;}
</style>
<title>like</title>
<path d="M145-204.8c-0.7-3.7-3.2-6.7-6.7-8.1c-4.5-1.9-9.7-0.7-12.9,3c-0.4,0.5-1.3,1.9-1.4,2c-0.1-0.1-1-1.5-1.4-2
	c-3.2-3.6-8.3-4.8-12.8-3c-3.5,1.4-6,4.4-6.7,8.1c-0.9,3.6,0.2,7.4,2.9,10.1c4.3,4.5,18,17.9,18.1,17.9c0.1,0.1,13.7-13.5,18.1-17.9
	C144.8-197.4,145.9-201.2,145-204.8z"/>
<polygon class="st0" points="127.6,-220.3 122,-195.8 121.6,-196.5 130.1,-191.6 130.5,-191.4 130.3,-191 122.7,-182.2 
	129.7,-191.5 129.8,-190.9 121,-195.3 120.5,-195.5 120.6,-196.1 124.7,-220.9 "/>
<path d="M98.4-121.3c-0.7-3.7-3.2-6.7-6.7-8.1c-4.5-1.9-9.7-0.7-12.8,3c-0.1,0.1-0.2,0.3-0.3,0.4l-3.1,13.2l-1.1,0.9l-0.4-0.2
	l0.1-0.5l2.2-13.6c-0.1-0.1-0.1-0.2-0.2-0.3c-3.2-3.6-8.3-4.8-12.8-3c-3.5,1.4-6,4.4-6.7,8.1c-0.9,3.6,0.2,7.4,2.9,10.1
	c4.3,4.5,18,17.9,18.1,17.9c0.1,0.1,13.7-13.5,18.1-17.9C98.2-113.8,99.2-117.7,98.4-121.3z"/>
<path d="M98.4-163.1c-0.7-3.7-3.2-6.7-6.7-8.1c-4.5-1.9-9.7-0.7-12.8,3c-0.1,0.1-0.2,0.3-0.3,0.4l-3.1,13.2l8.1,4.7l0.4,0.2
	l-0.3,0.3l-0.9-0.1l-8.5-4.2l-0.4-0.2l0.1-0.5l2.2-13.6c-0.1-0.1-0.1-0.2-0.2-0.3c-3.2-3.6-8.3-4.8-12.8-3c-3.5,1.4-6,4.4-6.7,8.1
	c-0.9,3.6,0.2,7.4,2.9,10.1c4.3,4.5,18,17.9,18.1,17.9c0.1,0.1,13.7-13.5,18.1-17.9C98.2-155.6,99.2-159.4,98.4-163.1z"/>
<path d="M98.4-204.8c-0.7-3.7-3.2-6.7-6.7-8.1c-4.5-1.9-9.7-0.7-12.8,3c-0.1,0.1-0.2,0.3-0.3,0.4l-3.1,13.2l8.1,4.7l0.4,0.2
	l-0.3,0.3l-7.5,8.8l6.7-8.9l-8.5-4.2l-0.4-0.2l0.1-0.5l2.2-13.6c-0.1-0.1-0.1-0.2-0.2-0.3c-3.2-3.6-8.3-4.8-12.8-3
	c-3.5,1.4-6,4.4-6.7,8.1c-0.9,3.6,0.2,7.4,2.9,10.1c4.3,4.5,18,17.9,18.1,17.9c0.1,0.1,13.7-13.5,18.1-17.9
	C98.2-197.4,99.2-201.2,98.4-204.8z"/>
<path d="M44.7-51.7c-0.7-3.7-3.2-6.7-6.7-8.1c-4.5-1.9-9.7-0.7-12.8,3c-0.1,0.1-7.4,11.1-7.4,11.1s9.8,9.4,9.8,9.4
	s-3.8,12.5-3.8,12.6c0,0,2.9-12.5,2.9-12.5l-10.8-9.4c0,0,6.6-11.1,6.5-11.2c-3.2-3.6-8.3-4.8-12.8-3c-3.5,1.4-6,4.4-6.7,8.1
	c-0.9,3.6,0.2,7.4,2.9,10c4.3,4.5,18,17.9,18.1,17.9s13.7-13.5,18.1-17.9C44.5-44.3,45.6-48.1,44.7-51.7z"/>
<path d="M-1.4-51.7c-0.7-3.7-3.2-6.7-6.7-8.1c-4.5-1.9-9.7-0.7-12.9,3c-0.1,0.1-7.4,11.1-7.4,11.1s9.8,9.4,9.8,9.4s-0.4,0.6-0.5,0.7
	c0,0-0.4-0.6-0.4-0.6l-10.8-9.4c0,0,6.6-11.1,6.5-11.2c-3.2-3.6-8.3-4.8-12.8-3c-3.5,1.4-6,4.4-6.7,8.1c-0.9,3.6,0.2,7.4,2.9,10
	c4.3,4.5,18,17.9,18.1,17.9S-8.6-37.2-4.2-41.7C-1.6-44.3-0.5-48.1-1.4-51.7z"/>
<path d="M-49.3-51.7c-0.7-3.7-3.2-6.7-6.7-8.1c-4.5-1.9-9.7-0.7-12.8,3c-0.1,0.1-7.4,11.1-7.4,11.1s-0.5,0.8-0.5,0.8
	s-0.4,0.6-0.5,0.7c0,0-0.4-0.6-0.4-0.6l-0.5-0.7c0,0,6.6-11.1,6.5-11.2c-3.2-3.6-8.3-4.8-12.8-3c-3.5,1.4-6,4.4-6.7,8.1
	c-0.9,3.6,0.2,7.4,2.9,10c4.3,4.5,18,17.9,18.1,17.9s13.7-13.5,18.1-17.9C-49.5-44.3-48.5-48.1-49.3-51.7z"/>
<path d="M-98.4-51.7c-0.7-3.7-3.2-6.7-6.7-8.1c-4.5-1.9-9.7-0.7-12.9,3c-0.1,0.1-0.4,0.6-0.4,0.6s-0.5,0.8-0.5,0.8s-0.4,0.6-0.5,0.7
	c0,0-0.4-0.6-0.4-0.6l-0.5-0.7c0,0-0.4-0.5-0.5-0.7c-3.2-3.6-8.3-4.8-12.8-3c-3.5,1.4-6,4.4-6.7,8.1c-0.9,3.6,0.2,7.4,2.9,10
	c4.3,4.5,18,17.9,18.1,17.9s13.7-13.5,18.1-17.9C-98.6-44.3-97.5-48.1-98.4-51.7z"/>
<path d="M42.2,9c-0.7-3.7-3.2-6.7-6.7-8.1c-3.2-1.3-6.9-1.1-9.8,0.5C25.5,1.5,17,11.8,17,11.8s11,11.3,10.3,12.2
	c-0.4,0.5-6,12.9-6.1,13c-0.1-0.1,2.8-12.3,2.4-12.8c-0.6-0.7-13.9-12-13.9-12s7.6-10.4,7.3-10.5c-3-1.8-6.7-2.1-10.1-0.7
	C3.5,2.3,1,5.3,0.3,9c-0.9,3.6,0.2,7.4,2.9,10c4.3,4.5,18,17.9,18.1,17.9S34.9,23.5,39.3,19C41.9,16.4,43,12.6,42.2,9z"/>
<path d="M-5,9c-0.7-3.7-3.2-6.7-6.7-8.1c-3.2-1.3-6.9-1.1-9.8,0.5c-0.2,0.1-8.6,10.4-8.6,10.4s11,11.3,10.3,12.2
	c-0.4,0.5-1.8,2.3-1.9,2.4c-0.1-0.1-1.4-1.7-1.8-2.2c-0.6-0.7-13.9-12-13.9-12s7.6-10.4,7.3-10.5c-3-1.8-6.7-2.1-10.1-0.7
	c-3.5,1.4-6,4.4-6.7,8.1c-0.9,3.6,0.2,7.4,2.9,10c4.3,4.5,18,17.9,18.1,17.9S-12.2,23.5-7.9,19C-5.2,16.4-4.1,12.6-5,9z"/>
<path d="M-51.5,9c-0.7-3.7-3.2-6.7-6.7-8.1C-61.4-0.5-65-0.2-68,1.4c-0.2,0.1-8.6,10.4-8.6,10.4s-1,1.3-1.7,2.2
	c-0.4,0.5-1.8,2.3-1.9,2.4c-0.1-0.1-1.4-1.7-1.8-2.2c-0.6-0.7-1.9-1.9-1.9-1.9s7.6-10.4,7.3-10.5c-3-1.8-6.7-2.1-10.1-0.7
	c-3.5,1.4-6,4.4-6.7,8.1c-0.9,3.6,0.2,7.4,2.9,10c4.3,4.5,18,17.9,18.1,17.9S-58.7,23.5-54.4,19C-51.7,16.4-50.6,12.6-51.5,9z"/>
<path d="M-98.4,9c-0.7-3.7-3.2-6.7-6.7-8.1c-3.2-1.3-6.9-1.1-9.8,0.5c-0.2,0.1-0.5,0.3-0.5,0.3s-1.8,1.3-2.5,2.1
	c-0.4,0.5-1.3,1.9-1.4,2c-0.1-0.1-1-1.5-1.4-2c-0.6-0.7-2-1.8-2-1.8s-0.5-0.3-0.7-0.5c-3-1.8-6.7-2.1-10.1-0.7
	c-3.5,1.4-6,4.4-6.7,8.1c-0.9,3.6,0.2,7.4,2.9,10c4.3,4.5,18,17.9,18.1,17.9s13.7-13.5,18.1-17.9C-98.6,16.4-97.5,12.6-98.4,9z"/>
<path d="M51.7-204.8c-0.7-3.7-3.2-6.7-6.7-8.1c-4.5-1.9-9.7-0.7-12.8,3c-0.4,0.5-1.3,1.9-1.4,2c-0.1-0.1-1-1.5-1.4-2
	c-3.2-3.6-8.3-4.8-12.8-3c-3.5,1.4-6,4.4-6.7,8.1c-0.9,3.6,0.2,7.4,2.9,10.1c4.3,4.5,18,17.9,18.1,17.9c0.1,0.1,13.7-13.5,18.1-17.9
	C51.5-197.4,52.6-201.2,51.7-204.8z"/>
</svg>
