<?xml version="1.0" encoding="utf-8"?>
<!-- Generator: Adobe Illustrator 24.0.1, SVG Export Plug-In . SVG Version: 6.00 Build 0)  -->
<svg version="1.1" id="like" xmlns="http://www.w3.org/2000/svg" xmlns:xlink="http://www.w3.org/1999/xlink" x="0px" y="0px"
	 viewBox="0 0 42.4 37" style="enable-background:new 0 0 42.4 37;" xml:space="preserve">
<style type="text/css">
	.st0{fill:#FFFFFF;}
</style>
<path d="M42.2,9c-0.7-3.7-3.2-6.7-6.7-8.1c-3.2-1.3-6.9-1.1-9.8,0.5c-0.2,0.1-0.5,0.3-0.5,0.3S23.4,3,22.6,3.9
	c-0.4,0.5-1.3,1.9-1.4,2c-0.1-0.1-1-1.5-1.4-2c-0.6-0.7-2-1.8-2-1.8s-0.5-0.3-0.7-0.5c-3-1.8-6.7-2.1-10.1-0.7C3.5,2.3,1,5.3,0.3,9
	c-0.9,3.6,0.2,7.4,2.9,10c4.3,4.5,18,17.9,18.1,17.9S34.9,23.5,39.3,19C41.9,16.4,43,12.6,42.2,9z"/>
</svg>
