<?xml version="1.0" encoding="utf-8"?>
<!-- Generator: Adobe Illustrator 24.0.1, SVG Export Plug-In . SVG Version: 6.00 Build 0)  -->
<svg version="1.1" id="like" xmlns="http://www.w3.org/2000/svg" xmlns:xlink="http://www.w3.org/1999/xlink" x="0px" y="0px"
	 viewBox="0 0 42.4 37" style="enable-background:new 0 0 42.4 37;" xml:space="preserve">
<style type="text/css">
	.st0{fill:#FFFFFF;}
</style>
<path d="M42.2,9c-0.7-3.7-3.2-6.7-6.7-8.1C31-1,25.8,0.2,22.6,3.9C22.5,4,15.3,15,15.3,15s9.8,9.4,9.8,9.4S21.3,36.9,21.2,37
	c0,0,2.9-12.5,2.9-12.5l-10.8-9.4c0,0,6.6-11.1,6.5-11.2C16.6,0.2,11.5-1,7,0.9C3.5,2.3,1,5.3,0.3,9c-0.9,3.6,0.2,7.4,2.9,10
	c4.3,4.5,18,17.9,18.1,17.9S34.9,23.5,39.3,19C41.9,16.4,43,12.6,42.2,9z"/>
</svg>
